# xmcd CD database file generated by Grip 3.3.1
# 
# Track frame offsets:
#       150
#       21508
#       43035
#       61519
#       77348
#       93656
#       120893
#       146273
#       170426
#       187734
#       226951
#       238731
#       259963
#       275548
#       286475
#       300667
# 
# Disc length: 4161 seconds
# 
# Revision: 1
# Processed by: cddbd v1.5.2PL0 Copyright (c) Steve Scherf et al.
# Submitted via: Grip 3.3.1
# 
DISCID=cf103f10
DTITLE=Jascha Heifetz - Jascha Heifetz plays Great Violin Sonatas [CD1)
DYEAR=2013
DGENRE=Classical
TTITLE0=I. Adagio - Sonata for Solo Violin No.1 in G minor BWV 1001 (Bach
TTITLE0=)
TTITLE1=II. Fuga. Allegro - Sonata for Solo Violin No.1 in G minor BWV 10
TTITLE1=01 (Bach)
TTITLE2=III. Siciliano - Sonata for Solo Violin No.1 in G minor BWV 1001 
TTITLE2=(Bach)
TTITLE3=IV. Presto - Sonata for Solo Violin No.1 in G minor BWV 1001 (Bac
TTITLE3=h)
TTITLE4=I. Grave - Sonata for Solo Violin No.2 in A minor BWV 1003 (Bach)
TTITLE5=II. Fuga - Sonata for Solo Violin No.2 in A minor BWV 1003 (Bach)
TTITLE6=III. Andante - Sonata for Solo Violin No.2 in A minor BWV 1003 (B
TTITLE6=ach)
TTITLE7=IV. Allegro - Sonata for Solo Violin No.2 in A minor BWV 1003 (Ba
TTITLE7=ch)
TTITLE8=I. Adagio - Sonata for Solo Violin No.3 in C major BWV 1005 (Bach
TTITLE8=)
TTITLE9=II. Fuga - Sonata for Solo Violin No.3 in C major BWV 1005 (Bach)
TTITLE10=III. Largo - Sonata for Solo Violin No.3 in C major BWV 1005 (Bac
TTITLE10=h)
TTITLE11=IV. Allegro assai - Sonata for Solo Violin No.3 in C major BWV 10
TTITLE11=05 (Bach)
TTITLE12=I. Affettuoso - Sonata for Violin and Basso continuo in D major H
TTITLE12=WV 371 (Händel)
TTITLE13=II. Allegro - Sonata for Violin and Basso continuo in D major HWV
TTITLE13=371 (Händel)
TTITLE14=III. Larghetto - Sonata for Violin and Basso continuo in D major 
TTITLE14=HWV 371 (Händel)
TTITLE15=IV. Allegro - Sonata for Violin and Basso continuo in D major HWV
TTITLE15=371 (Händel)
EXTD=
EXTT0=
EXTT1=
EXTT2=
EXTT3=
EXTT4=
EXTT5=
EXTT6=
EXTT7=
EXTT8=
EXTT9=
EXTT10=
EXTT11=
EXTT12=
EXTT13=
EXTT14=
EXTT15=
PLAYORDER=
